FILE "stonecold.flac" FLAC
PERFORMER "Various"
TITLE "Tribute To Queen - Stone Cold Queen"
  TRACK 01 AUDIO
    TITLE "Robin Zander - Stone Cold Crazy"
    INDEX 01 00:00:00
  TRACK 02 AUDIO
    TITLE "Mickey Thomas - Play The Game"
    INDEX 01 03:38:30
  TRACK 03 AUDIO
    TITLE "Joe Lynn Turner - Fat Bottomed Girls"
    INDEX 01 08:35:35
  TRACK 04 AUDIO
    TITLE "Geoff Tate - Somebody To Love"
    INDEX 01 13:02:10
  TRACK 05 AUDIO
    TITLE "Gunnar & Mathew Nelson - Crazy Little Thing Called Love"
    INDEX 01 17:47:17
  TRACK 06 AUDIO
    TITLE "Jack Blades - Fight From Inside"
    INDEX 01 20:55:62
  TRACK 07 AUDIO
    TITLE "Jason Scheff - You're My Best Friend"
    INDEX 01 24:48:12
  TRACK 08 AUDIO
    TITLE "Kip Winger - I'm In Love With My Car"
    INDEX 01 27:57:45
  TRACK 09 AUDIO
    TITLE "Glenn Hughes - Killer Queen"
    INDEX 01 31:42:05
  TRACK 10 AUDIO
    TITLE "Tommy Shaw - Spread Your Wings"
    INDEX 01 35:12:15
  TRACK 11 AUDIO
    TITLE "Jack Russel - We Will Rock You"
    INDEX 01 39:58:10
